<?xml version="1.0" encoding="UTF-8" standalone="no"?>
<!-- Created with Inkscape (http://www.inkscape.org/) -->

<svg
   xmlns:dc="http://purl.org/dc/elements/1.1/"
   xmlns:cc="http://creativecommons.org/ns#"
   xmlns:rdf="http://www.w3.org/1999/02/22-rdf-syntax-ns#"
   xmlns:svg="http://www.w3.org/2000/svg"
   xmlns="http://www.w3.org/2000/svg"
   version="1.1"
   width="12"
   height="20"
   id="svg3015">
  <metadata
     id="metadata3023">
    <rdf:RDF>
      <cc:Work
         rdf:about="">
        <dc:format>image/svg+xml</dc:format>
        <dc:type
           rdf:resource="http://purl.org/dc/dcmitype/StillImage" />
        <dc:title></dc:title>
      </cc:Work>
    </rdf:RDF>
  </metadata>
  <defs
     id="defs3021" />
  <path
     d="M 9,10 10,9 11,3 10,2 8.9,3 4.9,3 4.1,2 5.4,1 9.4,1 10,2 8.9,3 8.3,9 l 1.4,2 -0.6,6 -2.5,2 -4,0 -0.7,-1 1.2,-1 4,0 0.8,1 L 7.1,17 7.7,11 9,10 7.7,11 3.7,11 2.3,9 2.9,3 4.1,2 4.9,3 4.3,9 1.7,11 1.1,17 1.9,18 3.1,17 3.7,11 3,10 4.3,9 l 4,0 z"
     id="path3017"
     style="fill:#dd0000;stroke:#ffffff;stroke-width:0.08" />
</svg>
