<?xml version="1.0" encoding="UTF-8" standalone="no"?>
<!-- Created with Inkscape (http://www.inkscape.org/) -->

<svg
   xmlns:dc="http://purl.org/dc/elements/1.1/"
   xmlns:cc="http://creativecommons.org/ns#"
   xmlns:rdf="http://www.w3.org/1999/02/22-rdf-syntax-ns#"
   xmlns:svg="http://www.w3.org/2000/svg"
   xmlns="http://www.w3.org/2000/svg"
   xmlns:xlink="http://www.w3.org/1999/xlink"
   version="1.2"
   width="96"
   height="96"
   viewBox="0 0 96 96"
   id="ORANGE_BACKGROUNDS"
   xml:space="preserve"
   style="display:inline"><metadata
   id="metadata3069"><rdf:RDF><cc:Work
       rdf:about=""><dc:format>image/svg+xml</dc:format><dc:type
         rdf:resource="http://purl.org/dc/dcmitype/StillImage" /><dc:title></dc:title></cc:Work></rdf:RDF></metadata><defs
   id="defs3067"><linearGradient
   id="linearGradient5113"><stop
     id="stop5115"
     style="stop-color:#64af2d;stop-opacity:1"
     offset="0" /></linearGradient><linearGradient
   id="linearGradient5332"><stop
     id="stop5334"
     style="stop-color:#78c56d;stop-opacity:1"
     offset="0" /></linearGradient><linearGradient
   id="linearGradient3799"><stop
     id="stop3801"
     style="stop-color:#7886e4;stop-opacity:1"
     offset="0" /></linearGradient><linearGradient
   x1="48"
   y1="8"
   x2="48"
   y2="88"
   id="RED_x2F_ORANGE_5_2_-1"
   gradientUnits="userSpaceOnUse"><stop
     id="stop3054-7"
     style="stop-color:#ffdb62;stop-opacity:1"
     offset="0" /><stop
     id="stop3056-4"
     style="stop-color:#fad15c;stop-opacity:1"
     offset="0.14" /><stop
     id="stop3058-0"
     style="stop-color:#edb74d;stop-opacity:1"
     offset="0.37" /><stop
     id="stop3060-9"
     style="stop-color:#e6a844;stop-opacity:1"
     offset="0.48" /><stop
     id="stop3062-4"
     style="stop-color:#c96b25;stop-opacity:1"
     offset="1" /></linearGradient><linearGradient
   x1="48"
   y1="8"
   x2="48"
   y2="88"
   id="linearGradient3091"
   xlink:href="#RED_x2F_ORANGE_5_2_-1"
   gradientUnits="userSpaceOnUse"
   gradientTransform="translate(2,-2)" /><linearGradient
   x1="48"
   y1="8"
   x2="48"
   y2="88"
   id="linearGradient3124"
   xlink:href="#RED_x2F_ORANGE_5_2_-1"
   gradientUnits="userSpaceOnUse"
   gradientTransform="translate(0,5e-4)" /><linearGradient
   x1="48"
   y1="8"
   x2="48"
   y2="88"
   id="linearGradient3124-1"
   xlink:href="#RED_x2F_ORANGE_5_2_-1-7"
   gradientUnits="userSpaceOnUse"
   gradientTransform="translate(0,5e-4)" /><linearGradient
   x1="48"
   y1="8"
   x2="48"
   y2="88"
   id="RED_x2F_ORANGE_5_2_-1-7"
   gradientUnits="userSpaceOnUse"><stop
     id="stop3054-7-4"
     style="stop-color:#ffdb62;stop-opacity:1"
     offset="0" /><stop
     id="stop3056-4-0"
     style="stop-color:#fad15c;stop-opacity:1"
     offset="0.14" /><stop
     id="stop3058-0-9"
     style="stop-color:#edb74d;stop-opacity:1"
     offset="0.37" /><stop
     id="stop3060-9-4"
     style="stop-color:#e6a844;stop-opacity:1"
     offset="0.48" /><stop
     id="stop3062-4-8"
     style="stop-color:#c96b25;stop-opacity:1"
     offset="1" /></linearGradient><linearGradient
   x1="48"
   y1="8"
   x2="48"
   y2="88"
   id="linearGradient3234"
   xlink:href="#RED_x2F_ORANGE_5_2_-1-7"
   gradientUnits="userSpaceOnUse"
   gradientTransform="translate(0,5e-4)" /><linearGradient
   x1="48"
   y1="8"
   x2="48"
   y2="88"
   id="linearGradient3234-8"
   xlink:href="#RED_x2F_ORANGE_5_2_-1-7-2"
   gradientUnits="userSpaceOnUse"
   gradientTransform="translate(0,5e-4)" /><linearGradient
   x1="48"
   y1="8"
   x2="48"
   y2="88"
   id="RED_x2F_ORANGE_5_2_-1-7-2"
   gradientUnits="userSpaceOnUse"><stop
     id="stop3054-7-4-4"
     style="stop-color:#ffdb62;stop-opacity:1"
     offset="0" /><stop
     id="stop3056-4-0-5"
     style="stop-color:#fad15c;stop-opacity:1"
     offset="0.14" /><stop
     id="stop3058-0-9-5"
     style="stop-color:#edb74d;stop-opacity:1"
     offset="0.37" /><stop
     id="stop3060-9-4-1"
     style="stop-color:#e6a844;stop-opacity:1"
     offset="0.48" /><stop
     id="stop3062-4-8-7"
     style="stop-color:#c96b25;stop-opacity:1"
     offset="1" /></linearGradient><linearGradient
   x1="48"
   y1="8"
   x2="48"
   y2="88"
   id="linearGradient3277"
   xlink:href="#RED_x2F_ORANGE_5_2_-1-7-2"
   gradientUnits="userSpaceOnUse"
   gradientTransform="translate(0,5e-4)" /><linearGradient
   x1="-78"
   y1="32"
   x2="-15"
   y2="32"
   id="linearGradient3803-1"
   xlink:href="#linearGradient3799-7"
   gradientUnits="userSpaceOnUse" /><linearGradient
   id="linearGradient3799-7"><stop
     id="stop3801-4"
     style="stop-color:#78d9e4;stop-opacity:1"
     offset="0" /></linearGradient><linearGradient
   x1="-78"
   y1="32"
   x2="-15"
   y2="32"
   id="linearGradient3819-9"
   xlink:href="#linearGradient3799-7-4"
   gradientUnits="userSpaceOnUse" /><linearGradient
   id="linearGradient3799-7-4"><stop
     id="stop3801-4-8"
     style="stop-color:#782ee4;stop-opacity:1"
     offset="0" /></linearGradient><linearGradient
   x1="-78"
   y1="32"
   x2="-15"
   y2="32"
   id="linearGradient3850-2"
   xlink:href="#linearGradient3799-7-4-4"
   gradientUnits="userSpaceOnUse" /><linearGradient
   id="linearGradient3799-7-4-4"><stop
     id="stop3801-4-8-5"
     style="stop-color:#782e38;stop-opacity:1"
     offset="0" /></linearGradient><linearGradient
   x1="48"
   y1="8"
   x2="48"
   y2="88"
   id="linearGradient3277-1"
   xlink:href="#RED_x2F_ORANGE_5_2_-1-7-2-7"
   gradientUnits="userSpaceOnUse"
   gradientTransform="translate(0,5e-4)" /><linearGradient
   x1="48"
   y1="8"
   x2="48"
   y2="88"
   id="RED_x2F_ORANGE_5_2_-1-7-2-7"
   gradientUnits="userSpaceOnUse"><stop
     id="stop3054-7-4-4-4"
     style="stop-color:#ffdb62;stop-opacity:1"
     offset="0" /><stop
     id="stop3056-4-0-5-0"
     style="stop-color:#fad15c;stop-opacity:1"
     offset="0.14" /><stop
     id="stop3058-0-9-5-9"
     style="stop-color:#edb74d;stop-opacity:1"
     offset="0.37" /><stop
     id="stop3060-9-4-1-4"
     style="stop-color:#e6a844;stop-opacity:1"
     offset="0.48" /><stop
     id="stop3062-4-8-7-8"
     style="stop-color:#c96b25;stop-opacity:1"
     offset="1" /></linearGradient><linearGradient
   x1="48"
   y1="8"
   x2="48"
   y2="88"
   id="linearGradient4552"
   xlink:href="#RED_x2F_ORANGE_5_2_-1-7-2-7"
   gradientUnits="userSpaceOnUse"
   gradientTransform="translate(0,5e-4)" /><linearGradient
   x1="48"
   y1="8"
   x2="48"
   y2="88"
   id="linearGradient4552-2"
   xlink:href="#RED_x2F_ORANGE_5_2_-1-7-2-7-4"
   gradientUnits="userSpaceOnUse"
   gradientTransform="translate(0,5e-4)" /><linearGradient
   x1="48"
   y1="8"
   x2="48"
   y2="88"
   id="RED_x2F_ORANGE_5_2_-1-7-2-7-4"
   gradientUnits="userSpaceOnUse"><stop
     id="stop3054-7-4-4-4-5"
     style="stop-color:#ffdb62;stop-opacity:1"
     offset="0" /><stop
     id="stop3056-4-0-5-0-5"
     style="stop-color:#fad15c;stop-opacity:1"
     offset="0.14" /><stop
     id="stop3058-0-9-5-9-1"
     style="stop-color:#edb74d;stop-opacity:1"
     offset="0.37" /><stop
     id="stop3060-9-4-1-4-7"
     style="stop-color:#e6a844;stop-opacity:1"
     offset="0.48" /><stop
     id="stop3062-4-8-7-8-1"
     style="stop-color:#c96b25;stop-opacity:1"
     offset="1" /></linearGradient>
	

		<linearGradient
   x1="48"
   y1="8"
   x2="48"
   y2="88"
   id="RED_x2F_ORANGE_5_2_-8"
   gradientUnits="userSpaceOnUse">
			<stop
   id="stop6363"
   style="stop-color:#ffdb62;stop-opacity:1"
   offset="0" />
			<stop
   id="stop6365"
   style="stop-color:#fad15c;stop-opacity:1"
   offset="0.14" />
			<stop
   id="stop6367"
   style="stop-color:#edb74d;stop-opacity:1"
   offset="0.37" />
			<stop
   id="stop6369"
   style="stop-color:#e6a844;stop-opacity:1"
   offset="0.48" />
			<stop
   id="stop6371"
   style="stop-color:#c96b25;stop-opacity:1"
   offset="1" />
		</linearGradient>
		
		<linearGradient
   x1="48"
   y1="8.3"
   x2="48"
   y2="88"
   id="HIGHLIGHTS_RO5_1_"
   gradientUnits="userSpaceOnUse">
			<stop
   id="stop6375"
   style="stop-color:#ffffff;stop-opacity:1"
   offset="0" />
			<stop
   id="stop6377"
   style="stop-color:#fdf8f5;stop-opacity:1"
   offset="0.1" />
			<stop
   id="stop6379"
   style="stop-color:#f6e6db;stop-opacity:1"
   offset="0.26" />
			<stop
   id="stop6381"
   style="stop-color:#ebc9af;stop-opacity:1"
   offset="0.47" />
			<stop
   id="stop6383"
   style="stop-color:#dca073;stop-opacity:1"
   offset="0.71" />
			<stop
   id="stop6385"
   style="stop-color:#ca6d28;stop-opacity:1"
   offset="0.99" />
			<stop
   id="stop6387"
   style="stop-color:#c96b25;stop-opacity:1"
   offset="1" />
		</linearGradient>
		
	
	
<linearGradient
   x1="48"
   y1="9.8"
   x2="48"
   y2="90"
   id="linearGradient5108"
   xlink:href="#VIOLET_1_3_"
   gradientUnits="userSpaceOnUse" /><linearGradient
   x1="-54"
   y1="-36"
   x2="-20"
   y2="-36"
   id="linearGradient5117-3"
   xlink:href="#linearGradient5113-1"
   gradientUnits="userSpaceOnUse"
   gradientTransform="matrix(0.14,0,0,0.14,-12,-16)" /><linearGradient
   id="linearGradient5113-1"><stop
     id="stop5115-9"
     style="stop-color:#449311;stop-opacity:1"
     offset="0" /></linearGradient><linearGradient
   x1="-54"
   y1="-36"
   x2="-20"
   y2="-36"
   id="linearGradient5133-6"
   xlink:href="#linearGradient5113-1-5"
   gradientUnits="userSpaceOnUse"
   gradientTransform="matrix(0.14,0,0,0.14,-7.2,-16)" /><linearGradient
   id="linearGradient5113-1-5"><stop
     id="stop5115-9-0"
     style="stop-color:#128406;stop-opacity:1"
     offset="0" /></linearGradient><linearGradient
   x1="-54"
   y1="-36"
   x2="-20"
   y2="-36"
   id="linearGradient5164-8"
   xlink:href="#linearGradient5113-1-5-6"
   gradientUnits="userSpaceOnUse"
   gradientTransform="matrix(0.14,0,0,0.14,-2.2,-16)" /><linearGradient
   id="linearGradient5113-1-5-6"><stop
     id="stop5115-9-0-0"
     style="stop-color:#009351;stop-opacity:1"
     offset="0" /></linearGradient><linearGradient
   id="linearGradient5113-1-5-6-8"><stop
     id="stop5115-9-0-0-6"
     style="stop-color:#1b34b2;stop-opacity:1"
     offset="0" /></linearGradient><linearGradient
   id="linearGradient5113-1-5-0"><stop
     id="stop5115-9-0-9"
     style="stop-color:#0066a8;stop-opacity:1"
     offset="0" /></linearGradient><linearGradient
   id="linearGradient5113-1-0"><stop
     id="stop5115-9-6"
     style="stop-color:#0082b6;stop-opacity:1"
     offset="0" /></linearGradient><linearGradient
   x1="-54"
   y1="-36"
   x2="-20"
   y2="-36"
   id="linearGradient5117-1"
   xlink:href="#linearGradient5113-3"
   gradientUnits="userSpaceOnUse"
   gradientTransform="matrix(0.14,0,0,0.14,-12,-16)" /><linearGradient
   id="linearGradient5113-3"><stop
     id="stop5115-8"
     style="stop-color:#0d9758;stop-opacity:1"
     offset="0" /></linearGradient><linearGradient
   x1="-54"
   y1="-36"
   x2="-20"
   y2="-36"
   id="linearGradient5238-6"
   xlink:href="#linearGradient5113-3-0"
   gradientUnits="userSpaceOnUse"
   gradientTransform="matrix(0.14,0,0,0.14,-12,-11)" /><linearGradient
   id="linearGradient5113-3-0"><stop
     id="stop5115-8-6"
     style="stop-color:#2c00a5;stop-opacity:1"
     offset="0" /></linearGradient><linearGradient
   id="linearGradient5113-1-0-1"><stop
     id="stop5115-9-6-8"
     style="stop-color:#62226a;stop-opacity:1"
     offset="0" /></linearGradient><linearGradient
   id="linearGradient5113-1-5-0-9"><stop
     id="stop5115-9-0-9-6"
     style="stop-color:#e50c98;stop-opacity:1"
     offset="0" /></linearGradient><linearGradient
   id="linearGradient5113-1-5-6-8-7"><stop
     id="stop5115-9-0-0-6-8"
     style="stop-color:#ec297b;stop-opacity:1"
     offset="0" /></linearGradient><linearGradient
   id="linearGradient5113-1-5-6-8-7-5"><stop
     id="stop5115-9-0-0-6-8-9"
     style="stop-color:#ff7a0d;stop-opacity:1"
     offset="0" /></linearGradient><linearGradient
   id="linearGradient5113-1-5-0-9-4"><stop
     id="stop5115-9-0-9-6-0"
     style="stop-color:#ff5b00;stop-opacity:1"
     offset="0" /></linearGradient><linearGradient
   id="linearGradient5113-1-0-1-6"><stop
     id="stop5115-9-6-8-3"
     style="stop-color:#f74000;stop-opacity:1"
     offset="0" /></linearGradient><linearGradient
   x1="-54"
   y1="-36"
   x2="-20"
   y2="-36"
   id="linearGradient5305-6"
   xlink:href="#linearGradient5113-3-0-1"
   gradientUnits="userSpaceOnUse"
   gradientTransform="matrix(0.14,0,0,0.14,-12,-6.4)" /><linearGradient
   id="linearGradient5113-3-0-1"><stop
     id="stop5115-8-6-5"
     style="stop-color:#e21429;stop-opacity:1"
     offset="0" /></linearGradient><linearGradient
   id="linearGradient5113-1-5-6-8-7-5-3"><stop
     id="stop5115-9-0-0-6-8-9-7"
     style="stop-color:#e0e0e0;stop-opacity:1"
     offset="0" /></linearGradient><linearGradient
   id="linearGradient5113-1-5-0-9-4-6"><stop
     id="stop5115-9-0-9-6-0-0"
     style="stop-color:#e8e8e8;stop-opacity:1"
     offset="0" /></linearGradient><linearGradient
   id="linearGradient5113-1-0-1-6-6"><stop
     id="stop5115-9-6-8-3-5"
     style="stop-color:#f7d303;stop-opacity:1"
     offset="0" /></linearGradient><linearGradient
   x1="-54"
   y1="-36"
   x2="-20"
   y2="-36"
   id="linearGradient5372-7"
   xlink:href="#linearGradient5113-3-0-1-5"
   gradientUnits="userSpaceOnUse"
   gradientTransform="matrix(0.14,0,0,0.14,-12,-1.4)" /><linearGradient
   id="linearGradient5113-3-0-1-5"><stop
     id="stop5115-8-6-5-4"
     style="stop-color:#ffa300;stop-opacity:1"
     offset="0" /></linearGradient><linearGradient
   x1="-54"
   y1="-36"
   x2="-20"
   y2="-36"
   id="linearGradient5164-5-4-8-2-1"
   xlink:href="#linearGradient5113-1-5-0-9-4-6-4"
   gradientUnits="userSpaceOnUse"
   gradientTransform="matrix(0.14,0,0,0.14,-12,8.6)" /><linearGradient
   id="linearGradient5113-1-5-0-9-4-6-4"><stop
     id="stop5115-9-0-9-6-0-0-6"
     style="stop-color:#d3d3d3;stop-opacity:1"
     offset="0" /></linearGradient><linearGradient
   id="linearGradient5113-1-5-6-8-7-5-3-7"><stop
     id="stop5115-9-0-0-6-8-9-7-1"
     style="stop-color:#cecece;stop-opacity:1"
     offset="0" /></linearGradient><linearGradient
   x1="48"
   y1="39"
   x2="48"
   y2="70"
   id="SVGID_1_"
   gradientUnits="userSpaceOnUse"><stop
     id="stop4392-1"
     style="stop-color:#fafcef;stop-opacity:1"
     offset="0.32" /><stop
     id="stop4394-7"
     style="stop-color:#d0cbc5;stop-opacity:1"
     offset="1" /></linearGradient><linearGradient
   x1="48"
   y1="39"
   x2="48"
   y2="70"
   id="linearGradient4418"
   xlink:href="#SVGID_1_"
   gradientUnits="userSpaceOnUse"
   gradientTransform="translate(69,-90)" /><linearGradient
   x1="48"
   y1="0"
   x2="48"
   y2="140"
   id="HIGHLIGHT_RIM_1_"
   gradientUnits="userSpaceOnUse"><stop
     id="stop4495"
     style="stop-color:#ffffff;stop-opacity:1"
     offset="0" /><stop
     id="stop4497"
     style="stop-color:#000000;stop-opacity:1"
     offset="1" /></linearGradient><linearGradient
   x1="48"
   y1="0"
   x2="48"
   y2="140"
   id="linearGradient4559"
   gradientUnits="userSpaceOnUse"><stop
     id="stop4561"
     style="stop-color:#ffffff;stop-opacity:1"
     offset="0" /><stop
     id="stop4563"
     style="stop-color:#000000;stop-opacity:1"
     offset="1" /></linearGradient><linearGradient
   x1="48"
   y1="0"
   x2="48"
   y2="140"
   id="linearGradient3263"
   xlink:href="#HIGHLIGHT_RIM_1_"
   gradientUnits="userSpaceOnUse" /></defs>
<linearGradient
   x1="48"
   y1="8"
   x2="48"
   y2="88"
   id="RED_x2F_ORANGE_5_2_"
   gradientUnits="userSpaceOnUse">
	<stop
   id="stop3054"
   style="stop-color:#ffdb62;stop-opacity:1"
   offset="0" />
	<stop
   id="stop3056"
   style="stop-color:#fad15c;stop-opacity:1"
   offset="0.14" />
	<stop
   id="stop3058"
   style="stop-color:#edb74d;stop-opacity:1"
   offset="0.37" />
	<stop
   id="stop3060"
   style="stop-color:#e6a844;stop-opacity:1"
   offset="0.48" />
	<stop
   id="stop3062"
   style="stop-color:#c96b25;stop-opacity:1"
   offset="1" />
</linearGradient>

<g
   id="layer5"
   style="display:inline"><rect
     width="96"
     height="96"
     x="0"
     y="0"
     id="rect3119"
     style="fill:#000000;fill-opacity:0;stroke:none;display:inline" /></g><g
   id="layer4"
   style="display:inline"><path
     d="M 88,49 C 88,79 78,89 48,89 18,89 8,79 8,49 8,19 18,9 48,9 78,9 88,19 88,49 z"
     id="SHADOW"
     style="opacity:0.4" /></g><g
   id="layer7"
   style="display:inline"><path
     d="M 48,8 C 18,8 8,18 8,48 8,78 18,88 48,88 78,88 88,78 88,48 88,18 78,8 48,8 z"
     id="rect3554"
     style="fill:#ff7300;fill-opacity:1;fill-rule:nonzero" /></g><g
   id="layer2"
   style="display:inline"><path
     d="m 38,48 -3,-3 3,-20 4,-3 3,3 h 13 l 3,-3 -3,-3 H 45 l -3,3 3,3 -3,20 -7,6 -3,20 6,6 h 13 l 3,-3 -3,-3 H 38 l -3,3 3,-3 4,-20 -4,-3 4,3 h 12 l 7,-6 3,-20 -3,-3 -3,3 -4,20 7,6 -3,20 -4,3 -3,-3 3,-20 4,-3 -4,-3 H 42 z"
     id="path3517"
     style="fill:#ffffff;stroke:#ffffff;stroke-width:0.26" /></g><g
   id="layer3"
   style="display:inline"><path
     d="M 48,8 C 18,8 8,18 8,48 8,78 18,88 48,88 78,88 88,78 88,48 88,18 78,8 48,8 z m 0,79 C 19,87 9,77 9,48 9,19 19,9 48,9 77,9 87,19 87,48 87,77 77,87 48,87 z"
     id="HIGHLIGHT_RIM"
     style="fill:url(#linearGradient3263);fill-opacity:0.25" /><path
     d="M 48,88 C 18,88 8,78 8,48 8,18 18,8 48,8 78,8 88,18 88,48 88,78 78,88 48,88 z"
     id="SQUIRCLE"
     style="fill:#ffffff;fill-opacity:0.05;display:none" /><path
     d="M 9.5,64 C 13,82 25,88 48,88 71,88 83,82 87,64 H 9.5 z"
     id="path4502"
     style="opacity:0.02" /><path
     d="m 10,67 c 5,15 16,21 38,21 22,0 33,-6 38,-21 H 10 z"
     id="path4504"
     style="opacity:0.02" /><path
     d="m 11,70 c 5,13 17,18 37,18 20,0 32,-5 37,-18 H 11 z"
     id="path4506"
     style="opacity:0.02" /><path
     d="m 13,73 c 5,11 16,15 35,15 19,0 30,-4 35,-15 H 13 z"
     id="path4508"
     style="opacity:0.02" /><path
     d="m 14,75 c 6,9 16,13 34,13 18,0 28,-4 34,-13 H 14 z"
     id="path4510"
     style="opacity:0.02" /><path
     d="m 15,77 c 6,8 17,11 33,11 16,0 27,-3 33,-11 H 15 z"
     id="path4512"
     style="opacity:0.02" /><path
     d="m 17,79 c 6,6 16,9 31,9 15,0 25,-3 31,-9 H 17 z"
     id="path4514"
     style="fill-opacity:0.02" /><path
     d="M 48,9 C 18,9 8,19 8,49 c 0,3 0.1,6 0.3,8 l 0.2,0 H 87 l 1,0 c 0,-2 0,-5 0,-8 C 88,19 78,9 48,9 z"
     id="path4517"
     style="opacity:0.01;fill:#ffffff" /><path
     d="M 48,8 C 18,8 8,18 8,48 c 0,1 0,2 0,3 l 0.7,0 H 87 l 1,0 c 0,-1 0,-2 0,-3 C 88,18 78,8 48,8 z"
     id="path4519"
     style="opacity:0.01;fill:#ffffff" /><path
     d="m 9,46 h 78 l 1,0 C 88,18 77,8 48,8 19,8 8.5,18 8,46 l 1,0 z"
     id="path4521"
     style="opacity:0.01;fill:#ffffff" /><path
     d="M 9.2,41 H 87 l 1,0 C 86,17 75,8 48,8 21,8 9.9,17 8.2,41 l 1,0 z"
     id="path4523"
     style="opacity:0.01;fill:#ffffff" /><path
     d="M 9.2,37 H 87 c 0,0 0,0 0,0 C 85,16 74,8 48,8 22,8 11,16 8.6,37 8.8,37 9,37 9.2,37 z"
     id="path4525"
     style="opacity:0.01;fill:#ffffff" /><path
     d="M 48,8 C 24,8 13,15 9.2,33 H 87 C 83,15 72,8 48,8 z"
     id="path4527"
     style="opacity:0.01;fill:#ffffff" /><path
     d="m 84,30 2,-1 c 0,0 0,0 0,0 C 82,14 70,8 48,8 26,8 14,14 10,29 c 0,0 0,0 0,0 l 2,1 c 0,0 0,0 1,0 h 70 c 1,0 1,0 1,0 z"
     id="path4529"
     style="opacity:0.01;fill:#ffffff" /><path
     d="m 13,27 h 70 l 2,-1 C 80,13 69,8 48,8 27,8 16,13 11,26 l 2,1 z"
     id="path4531"
     style="opacity:0.01;fill:#ffffff" /><path
     d="m 13,25 h 70 c 1,0 1,0 1,0 C 79,13 68,8 48,8 28,8 17,13 12,25 c 0,0 0,0 1,0 z"
     id="path4533"
     style="opacity:0.01;fill:#ffffff" /><path
     d="M 83,23 C 78,12 67,8 48,8 29,8 18,12 13,23 h 70 z"
     id="path4535"
     style="opacity:0.01;fill:#ffffff" /></g></svg>